<svg width="15" height="15" viewBox="0 0 15 15" fill="none" xmlns="http://www.w3.org/2000/svg">
<path d="M14.1796 1.87497H12.3046V3.28119C12.3046 3.41662 12.2779 3.55071 12.2261 3.67583C12.1743 3.80094 12.0983 3.91463 12.0026 4.01039C11.9068 4.10614 11.7931 4.1821 11.668 4.23393C11.5429 4.28575 11.4088 4.31243 11.2734 4.31243C11.138 4.31243 11.0039 4.28575 10.8787 4.23393C10.7536 4.1821 10.6399 4.10614 10.5442 4.01039C10.4484 3.91463 10.3725 3.80094 10.3206 3.67583C10.2688 3.55071 10.2421 3.41662 10.2421 3.28119V1.87497H4.78129V3.28119C4.78129 3.55469 4.67265 3.81699 4.47925 4.01039C4.28586 4.20378 4.02356 4.31243 3.75006 4.31243C3.47656 4.31243 3.21426 4.20378 3.02087 4.01039C2.82747 3.81699 2.71883 3.55469 2.71883 3.28119V1.87497H0.843857C0.732307 1.8737 0.621635 1.89481 0.518387 1.93706C0.415139 1.9793 0.321412 2.04183 0.242748 2.12093C0.164084 2.20003 0.102081 2.2941 0.0604071 2.39758C0.0187328 2.50106 -0.00176691 2.61185 0.000120491 2.72339V13.2138C-0.00174183 13.3234 0.0180003 13.4323 0.0582191 13.5342C0.098438 13.6362 0.158346 13.7292 0.234521 13.808C0.310695 13.8868 0.401645 13.9498 0.502175 13.9934C0.602705 14.037 0.710845 14.0604 0.82042 14.0623H14.1796C14.2892 14.0604 14.3973 14.037 14.4978 13.9934C14.5984 13.9498 14.6893 13.8868 14.7655 13.808C14.8417 13.7292 14.9016 13.6362 14.9418 13.5342C14.982 13.4323 15.0017 13.3234 14.9999 13.2138V2.72339C15.0017 2.61382 14.982 2.50495 14.9418 2.40301C14.9016 2.30106 14.8417 2.20804 14.7655 2.12925C14.6893 2.05047 14.5984 1.98746 14.4978 1.94383C14.3973 1.9002 14.2892 1.8768 14.1796 1.87497ZM3.75006 11.2498H2.81258V10.3123H3.75006V11.2498ZM3.75006 8.9061H2.81258V7.96862H3.75006V8.9061ZM3.75006 6.56239H2.81258V5.62491H3.75006V6.56239ZM6.56252 11.2498H5.62503V10.3123H6.56252V11.2498ZM6.56252 8.9061H5.62503V7.96862H6.56252V8.9061ZM6.56252 6.56239H5.62503V5.62491H6.56252V6.56239ZM9.37497 11.2498H8.43748V10.3123H9.37497V11.2498ZM9.37497 8.9061H8.43748V7.96862H9.37497V8.9061ZM9.37497 6.56239H8.43748V5.62491H9.37497V6.56239ZM12.1874 11.2498H11.2499V10.3123H12.1874V11.2498ZM12.1874 8.9061H11.2499V7.96862H12.1874V8.9061ZM12.1874 6.56239H11.2499V5.62491H12.1874V6.56239Z" fill="black"/>
<path d="M3.75005 3.74994C3.87437 3.74994 3.9936 3.70055 4.0815 3.61265C4.16941 3.52474 4.2188 3.40552 4.2188 3.2812V0.468742C4.2188 0.344424 4.16941 0.225198 4.0815 0.137291C3.9936 0.0493852 3.87437 0 3.75005 0C3.62574 0 3.50651 0.0493852 3.4186 0.137291C3.3307 0.225198 3.28131 0.344424 3.28131 0.468742V3.2812C3.28131 3.40552 3.3307 3.52474 3.4186 3.61265C3.50651 3.70055 3.62574 3.74994 3.75005 3.74994Z" fill="black"/>
<path d="M11.2499 3.74994C11.3742 3.74994 11.4935 3.70055 11.5814 3.61265C11.6693 3.52474 11.7187 3.40552 11.7187 3.2812V0.468742C11.7187 0.344424 11.6693 0.225198 11.5814 0.137291C11.4935 0.0493852 11.3742 0 11.2499 0C11.1256 0 11.0064 0.0493852 10.9185 0.137291C10.8306 0.225198 10.7812 0.344424 10.7812 0.468742V3.2812C10.7812 3.40552 10.8306 3.52474 10.9185 3.61265C11.0064 3.70055 11.1256 3.74994 11.2499 3.74994Z" fill="black"/>
</svg>
