<svg width="34" height="34" viewBox="0 0 34 34" fill="none" xmlns="http://www.w3.org/2000/svg">
<path d="M18.7476 0C20.66 0.00509974 21.6307 0.0152992 22.4687 0.039098L22.7985 0.0509973C23.1793 0.0645966 23.555 0.0815957 24.0089 0.101995C25.8176 0.18699 27.0517 0.472576 28.1345 0.892455C29.2565 1.32423 30.2016 1.909 31.1468 2.85245C32.0112 3.70223 32.68 4.73016 33.1068 5.8647C33.5267 6.94754 33.8123 8.18168 33.8972 9.99209C33.9176 10.4443 33.9346 10.8199 33.9482 11.2024L33.9584 11.5322C33.9839 12.3686 33.9941 13.3392 33.9975 15.2516L33.9992 16.5198V18.7466C34.0034 19.9866 33.9904 21.2265 33.9601 22.466L33.9499 22.7958C33.9363 23.1783 33.9193 23.554 33.8989 24.0062C33.8139 25.8166 33.525 27.049 33.1068 28.1336C32.6813 29.2687 32.0122 30.2969 31.1468 31.1458C30.2968 32.0099 29.2689 32.6787 28.1345 33.1058C27.0517 33.5257 25.8176 33.8113 24.0089 33.8963C23.6055 33.9153 23.202 33.9323 22.7985 33.9473L22.4687 33.9575C21.6307 33.9813 20.66 33.9932 18.7476 33.9966L17.4795 33.9983H15.2543C14.0138 34.0025 12.7733 33.9895 11.5332 33.9592L11.2034 33.949C10.7999 33.9337 10.3964 33.9161 9.99307 33.8963C8.18436 33.8113 6.95022 33.5257 5.86568 33.1058C4.73128 32.6798 3.70376 32.0108 2.85513 31.1458C1.98996 30.2963 1.32049 29.2684 0.893435 28.1336C0.473557 27.0507 0.187971 25.8166 0.102976 24.0062C0.0840365 23.6028 0.0670372 23.1994 0.0519782 22.7958L0.0434788 22.466C0.0121529 21.2265 -0.00201454 19.9866 0.000980851 18.7466V15.2516C-0.00376355 14.0117 0.00870381 12.7718 0.0383791 11.5322L0.0502784 11.2024C0.0638777 10.8199 0.0808768 10.4443 0.101276 9.99209C0.186271 8.18168 0.471857 6.94924 0.891735 5.8647C1.31861 4.729 1.9894 3.70075 2.85683 2.85245C3.70525 1.988 4.73208 1.31911 5.86568 0.892455C6.95022 0.472576 8.18266 0.18699 9.99307 0.101995C10.4452 0.0815957 10.8226 0.0645966 11.2034 0.0509973L11.5332 0.0407978C12.7728 0.0105951 14.0127 -0.00243886 15.2526 0.00169979L18.7476 0ZM17.0001 8.49957C14.7459 8.49957 12.584 9.39505 10.99 10.989C9.39603 12.583 8.50055 14.7449 8.50055 16.9991C8.50055 19.2534 9.39603 21.4153 10.99 23.0092C12.584 24.6032 14.7459 25.4987 17.0001 25.4987C19.2543 25.4987 21.4162 24.6032 23.0102 23.0092C24.6042 21.4153 25.4997 19.2534 25.4997 16.9991C25.4997 14.7449 24.6042 12.583 23.0102 10.989C21.4162 9.39505 19.2543 8.49957 17.0001 8.49957ZM17.0001 11.8994C17.6698 11.8993 18.333 12.0311 18.9518 12.2873C19.5705 12.5434 20.1328 12.919 20.6064 13.3925C21.0801 13.8659 21.4558 14.4281 21.7122 15.0468C21.9686 15.6654 22.1006 16.3286 22.1007 16.9983C22.1008 17.668 21.969 18.3312 21.7128 18.9499C21.4566 19.5687 21.0811 20.131 20.6076 20.6046C20.1341 21.0782 19.572 21.454 18.9533 21.7104C18.3346 21.9667 17.6715 22.0988 17.0018 22.0989C15.6493 22.0989 14.3521 21.5616 13.3958 20.6052C12.4394 19.6488 11.9021 18.3517 11.9021 16.9991C11.9021 15.6466 12.4394 14.3495 13.3958 13.3931C14.3521 12.4367 15.6493 11.8994 17.0018 11.8994M25.9264 5.9497C25.3628 5.9497 24.8223 6.17357 24.4238 6.57206C24.0253 6.97056 23.8015 7.51103 23.8015 8.07459C23.8015 8.63814 24.0253 9.17862 24.4238 9.57711C24.8223 9.97561 25.3628 10.1995 25.9264 10.1995C26.4899 10.1995 27.0304 9.97561 27.4289 9.57711C27.8274 9.17862 28.0512 8.63814 28.0512 8.07459C28.0512 7.51103 27.8274 6.97056 27.4289 6.57206C27.0304 6.17357 26.4899 5.9497 25.9264 5.9497Z" fill="#8436F7"/>
</svg>
