<svg width="10" height="15" viewBox="0 0 10 15" fill="none" xmlns="http://www.w3.org/2000/svg">
<path d="M5 6.78571C4.5264 6.78571 4.0722 6.59758 3.73731 6.26269C3.40242 5.9278 3.21429 5.4736 3.21429 5C3.21429 4.5264 3.40242 4.0722 3.73731 3.73731C4.0722 3.40242 4.5264 3.21429 5 3.21429C5.4736 3.21429 5.9278 3.40242 6.26269 3.73731C6.59758 4.0722 6.78571 4.5264 6.78571 5C6.78571 5.2345 6.73953 5.46671 6.64979 5.68336C6.56004 5.90002 6.42851 6.09687 6.26269 6.26269C6.09687 6.42851 5.90002 6.56004 5.68336 6.64979C5.46671 6.73953 5.2345 6.78571 5 6.78571ZM5 0C3.67392 0 2.40215 0.526784 1.46447 1.46447C0.526784 2.40215 0 3.67392 0 5C0 8.75 5 14.2857 5 14.2857C5 14.2857 10 8.75 10 5C10 3.67392 9.47322 2.40215 8.53553 1.46447C7.59785 0.526784 6.32608 0 5 0Z" fill="black"/>
</svg>
