<svg width="15" height="14" viewBox="0 0 15 14" fill="none" xmlns="http://www.w3.org/2000/svg">
<path d="M14.9572 12.3093L12.023 9.37509C12.3093 8.65943 12.1661 7.72908 11.5221 7.15655C10.878 6.51246 9.94761 6.36933 9.16039 6.72716L10.5201 8.08691L9.51822 9.08882L8.08691 7.65751C7.72908 8.44473 7.87221 9.37509 8.5163 10.0907C9.16039 10.7348 10.0192 10.878 10.7348 10.5917L13.669 13.5259C13.8121 13.669 14.0268 13.669 14.0984 13.5259L14.8141 12.8102C15.0288 12.5955 15.0288 12.3808 14.9572 12.3093ZM7.87221 11.4505H0V10.0192C0 8.44473 2.57636 7.15655 5.72524 7.15655C6.08307 7.15655 6.4409 7.15655 6.72716 7.22812C6.51246 7.65751 6.4409 8.08691 6.4409 8.58786C6.4409 9.73291 7.01342 10.8064 7.87221 11.4505ZM5.72524 0C4.1508 0 2.86262 1.28818 2.86262 2.86262C2.86262 4.43706 4.1508 5.72524 5.72524 5.72524C7.29969 5.72524 8.58786 4.43706 8.58786 2.86262C8.58786 1.28818 7.29969 0 5.72524 0Z" fill="black"/>
</svg>
